<svg xmlns="http://www.w3.org/2000/svg" viewBox="0 0 250 250"><defs><style>.a{fill:none;stroke:#231f20;stroke-linecap:round;stroke-linejoin:round;stroke-width:3px;}</style></defs><path class="a" d="M98.642,78.105l-8.688-1.533a21.035,21.035,0,0,0-3.656-.32h-.029A20.667,20.667,0,0,0,68.254,86.424a33.382,33.382,0,0,0-4.16,16.854h0a35.794,35.794,0,0,0,4.724,17.771l4.739,8.283a31.205,31.205,0,0,1,4.04,12.8,72.055,72.055,0,0,0,9.327,29.719l3.156,5.486A4.518,4.518,0,0,0,94,179.6h0a4.52,4.52,0,0,0,4.52-4.52v-8.663a37.1,37.1,0,0,1,2.327-12.931l1.252-3.368a4.861,4.861,0,0,1,4.556-3.166h0a4.861,4.861,0,0,1,4.6,3.281l1.254,3.648a37.1,37.1,0,0,1,2.015,12.059v9.14a4.52,4.52,0,0,0,4.52,4.52h0a4.518,4.518,0,0,0,3.918-2.266l3.156-5.486a72.055,72.055,0,0,0,9.327-29.719,31.205,31.205,0,0,1,4.04-12.8"/><path class="a" d="M159.281,115.916l1.317,1.162,7.692,6.788,5.948,5.24,8.754,7.728a6.312,6.312,0,0,1,.91,8.587,5.553,5.553,0,0,1-.456.538l-.065.074a6.335,6.335,0,0,1-8.724.237l-8.7-7.676-5.941-5.248-7.692-6.788-1.369-1.207,1.377-1.564,5.4-6.121Z"/><path class="a" d="M155.079,100.606a27.051,27.051,0,0,0-.467-9.533,26.947,26.947,0,0,0-17.618-19.519,27.033,27.033,0,0,0-28.958,7.688,26.715,26.715,0,0,0-6.278,12.883,25.621,25.621,0,0,0-.381,2.788,27.009,27.009,0,0,0,53.7,5.693Z"/><line class="a" x1="148.495" y1="115.22" x2="155.01" y2="120.933"/><polyline class="a" points="114.839 88.525 123.617 85.904 124.561 97.122 137.465 101.011 134.283 110.642"/><path class="a" d="M90.877,87a12.275,12.275,0,0,0-12.02,3.821q-.312.369-.613.781a13.764,13.764,0,0,0-2.477,8.142"/></svg>